<svg xmlns="http://www.w3.org/2000/svg" version="1.1" xmlns:xlink="http://www.w3.org/1999/xlink" viewBox="0 0 200 200"><rect width="200" height="200" fill="url('#gradient')"></rect><defs><linearGradient id="gradient" gradientTransform="rotate(45 0.5 0.5)"><stop offset="0%" stop-color="#e3af29"></stop><stop offset="100%" stop-color="#db3d08"></stop></linearGradient></defs><g><g fill="#2c3431" transform="matrix(3.5329994435169727,0,0,3.5329994435169727,37.58854901881419,126.16408797318762)" stroke="#7d836e" stroke-width="0.9"><path d="M1.46-13.19L4.76-13.19L4.76-10.57L6.49-10.57L6.49-8.28L4.76-8.28L4.76-3.45Q4.76-2.85 4.97-2.62Q5.19-2.38 5.82-2.38L5.82-2.38Q6.31-2.38 6.64-2.44L6.64-2.44L6.64-0.09Q5.75 0.20 4.79 0.20L4.79 0.20Q3.09 0.20 2.28-0.61Q1.46-1.41 1.46-3.04L1.46-3.04L1.46-8.28L0.12-8.28L0.12-10.57L1.46-10.57L1.46-13.19ZM8.33-13.19L11.62-13.19L11.62-10.57L13.36-10.57L13.36-8.28L11.62-8.28L11.62-3.45Q11.62-2.85 11.84-2.62Q12.05-2.38 12.69-2.38L12.69-2.38Q13.17-2.38 13.51-2.44L13.51-2.44L13.51-0.09Q12.62 0.20 11.65 0.20L11.65 0.20Q9.95 0.20 9.14-0.61Q8.33-1.41 8.33-3.04L8.33-3.04L8.33-8.28L6.98-8.28L6.98-10.57L8.33-10.57L8.33-13.19ZM20.19-2.97L20.19-2.97Q20.19-3.39 19.75-3.64Q19.31-3.90 18.08-4.17Q16.85-4.44 16.04-4.89Q15.24-5.33 14.82-5.97Q14.40-6.60 14.40-7.42L14.40-7.42Q14.40-8.88 15.61-9.82Q16.81-10.76 18.75-10.76L18.75-10.76Q20.84-10.76 22.11-9.81Q23.38-8.87 23.38-7.32L23.38-7.32L20.08-7.32Q20.08-8.59 18.74-8.59L18.74-8.59Q18.22-8.59 17.87-8.31Q17.52-8.02 17.52-7.59L17.52-7.59Q17.52-7.15 17.95-6.88Q18.38-6.60 19.32-6.43Q20.26-6.25 20.98-6.01L20.98-6.01Q23.36-5.19 23.36-3.07L23.36-3.07Q23.36-1.62 22.08-0.71Q20.79 0.20 18.75 0.20L18.75 0.20Q17.39 0.20 16.33-0.29Q15.26-0.78 14.67-1.62Q14.07-2.46 14.07-3.39L14.07-3.39L17.15-3.39Q17.17-2.66 17.64-2.32Q18.11-1.98 18.84-1.98L18.84-1.98Q19.51-1.98 19.85-2.26Q20.19-2.53 20.19-2.97ZM31.45 0L29.14-3.94L28.21-3.01L28.21 0L24.92 0L24.92-15.01L28.21-15.01L28.21-7.04L28.54-7.48L31.03-10.57L34.97-10.57L31.27-6.22L35.21 0L31.45 0Z"></path></g></g></svg>